Coordinates
version=1
nRows=60
nColumns=12
inDegrees=yes

Units are S.I. units (second, meters, Newtons, ...)
Angles are in degrees

endheader
time	SC_y	SC_z	SC_x	AC_y	AC_z	AC_x	GH_y	GH_z	GH_yy	EL_x	PS_y
       0.0              -53.83          36.28          54.55          61.69         -10.79          4.233         -141.6          63.65          -99.4          98.04          26.38
   0.01205              -53.83          36.27          54.55          61.69         -10.79          4.232         -141.6          63.66         -99.36          98.05          26.39
    0.0241              -53.83          36.27          54.55          61.69         -10.79          4.231         -141.5          63.66         -99.31          98.06           26.4
   0.03616              -53.82          36.26          54.56          61.68         -10.79          4.229         -141.5          63.67         -99.27          98.06           26.4
   0.04821              -53.82          36.25          54.56          61.68         -10.78          4.227         -141.4          63.67         -99.22          98.07          26.41
   0.06026              -53.82          36.25          54.56          61.68         -10.78          4.226         -141.4          63.67         -99.17          98.08          26.42
   0.07231              -53.81          36.24          54.56          61.67         -10.78          4.224         -141.3          63.68         -99.12          98.09          26.43
   0.08437              -53.81          36.23          54.56          61.67         -10.77          4.222         -141.2          63.68         -99.06          98.09          26.44
   0.09642              -53.81          36.22          54.56          61.67         -10.77           4.22         -141.2          63.69          -99.0           98.1          26.44
    0.1085               -53.8          36.21          54.57          61.66         -10.77          4.218         -141.1          63.69         -98.93          98.11          26.45
    0.1205               -53.8           36.2          54.57          61.66         -10.76          4.215         -141.0           63.7         -98.86          98.13          26.47
    0.1326              -53.79          36.19          54.57          61.65         -10.76          4.212         -140.9          63.71         -98.78          98.14          26.48
    0.1446              -53.79          36.17          54.57          61.64         -10.75           4.21         -140.8          63.71          -98.7          98.15          26.49
    0.1567              -53.78          36.16          54.58          61.64         -10.75          4.207         -140.7          63.72         -98.61          98.16           26.5
    0.1687              -53.78          36.15          54.58          61.63         -10.74          4.203         -140.6          63.73         -98.51          98.18          26.52
    0.1808              -53.77          36.13          54.58          61.62         -10.74            4.2         -140.5          63.74          -98.4          98.19          26.53
    0.1928              -53.76          36.11          54.59          61.62         -10.73          4.196         -140.4          63.75         -98.29          98.21          26.55
    0.2049              -53.76          36.09          54.59          61.61         -10.72          4.191         -140.2          63.76         -98.16          98.23          26.57
    0.2169              -53.75          36.07          54.59           61.6         -10.71          4.187         -140.1          63.77         -98.03          98.25          26.59
     0.229              -53.74          36.05           54.6          61.59         -10.71          4.182         -139.9          63.78         -97.88          98.27          26.61
     0.241              -53.73          36.03           54.6          61.58          -10.7          4.176         -139.7          63.79         -97.71           98.3          26.64
    0.2531              -53.72           36.0          54.61          61.56         -10.69           4.17         -139.5          63.81         -97.53          98.33          26.66
    0.2651              -53.71          35.97          54.62          61.55         -10.67          4.163         -139.3          63.83         -97.33          98.36          26.69
    0.2772               -53.7          35.94          54.62          61.54         -10.66          4.156         -139.0          63.84         -97.11          98.39          26.73
    0.2893              -53.68           35.9          54.63          61.52         -10.65          4.147         -138.8          63.86         -96.87          98.43          26.76
    0.3013              -53.66          35.86          54.64           61.5         -10.63          4.138         -138.4          63.89         -96.59          98.47          26.81
    0.3134              -53.65          35.81          54.65          61.48         -10.61          4.128         -138.1          63.91         -96.29          98.52          26.85
    0.3254              -53.63          35.76          54.66          61.46         -10.59          4.116         -137.7          63.94         -95.94          98.57           26.9
    0.3375               -53.6           35.7          54.67          61.43         -10.57          4.103         -137.3          63.97         -95.55          98.63          26.96
    0.3495              -53.58          35.64          54.68           61.4         -10.54          4.087         -136.8          64.01         -95.11           98.7          27.03
    0.3616              -53.55          35.56           54.7          61.36         -10.52           4.07         -136.2          64.05          -94.6          98.77          27.11
    0.3736              -53.51          35.47          54.72          61.32         -10.48           4.05         -135.5           64.1         -94.02          98.86          27.19
    0.3857              -53.47          35.37          54.74          61.28         -10.44          4.028         -134.8          64.16         -93.35          98.97          27.29
    0.3977              -53.43          35.25          54.76          61.22          -10.4          4.001         -133.9          64.22         -92.57          99.08          27.41
    0.4098              -53.37          35.12          54.79          61.16         -10.34           3.97         -132.9           64.3         -91.66          99.22          27.55
    0.4218              -53.31          34.96          54.82          61.09         -10.28          3.934         -131.7          64.38         -90.59          99.39          27.71
    0.4339              -53.24          34.76          54.86           61.0         -10.21           3.89         -130.2          64.49         -89.31          99.58           27.9
    0.4459              -53.15          34.53          54.91          60.89         -10.12          3.838         -128.5          64.62         -87.78          99.82          28.13
     0.458              -53.04          34.25          54.97          60.77         -10.01          3.775         -126.4          64.77         -85.93          100.1          28.41
      0.47               -52.9          33.91          55.04          60.61         -9.881          3.698         -123.9          64.96         -83.67          100.4          28.75
    0.4821              -52.74           33.5          55.13          60.42         -9.719          3.603         -120.7          65.19         -80.88          100.9          29.17
    0.4941              -52.53          32.97          55.23          60.18         -9.516          3.485         -116.8          65.48          -77.4          101.4          29.69
    0.5062              -52.27          32.31          55.37          59.88         -9.262          3.335         -111.9          65.84         -73.02          102.1          30.35
    0.5182              -51.95          31.47          55.54           59.5         -8.938          3.146         -105.6           66.3         -67.45          102.9          31.19
    0.5303              -51.53           30.4          55.77          59.01         -8.524          2.903         -97.52          66.89         -60.32          104.0          32.26
    0.5423              -50.99          29.02          56.05          58.38         -7.992          2.591          -87.2          67.65         -51.17          105.4          33.64
    0.5544               -50.3          27.27          56.41          57.57         -7.313          2.193         -74.01          68.62         -39.48          107.2           35.4
    0.5665              -49.43          25.05          56.87          56.56          -6.46          1.692         -57.43          69.84         -24.78          109.4          37.61
    0.5785              -48.37          22.36          57.43          55.33         -5.419          1.082         -37.22          71.32         -6.868          112.2           40.3
    0.5906              -47.15          19.24          58.07           53.9         -4.213         0.3755          -13.8          73.04          13.89          115.3          43.42
    0.6026              -45.82          15.85          58.77          52.36         -2.908        -0.3901          11.56          74.91          36.37          118.8          46.81
    0.6147               -44.5          12.47          59.47          50.81         -1.602         -1.156          36.92          76.77          58.85          122.2          50.19
    0.6267              -43.27           9.35          60.11          49.39        -0.3959         -1.863          60.34          78.49          79.62          125.4          53.31
    0.6388              -42.22          6.655          60.67          48.15         0.6445         -2.473          80.55          79.98          97.53          128.1           56.0
    0.6508              -41.35          4.444          61.13          47.14          1.498         -2.973          97.13          81.19          112.2          130.3          58.22
    0.6629              -40.66          2.685          61.49          46.34          2.177         -3.371          110.3          82.16          123.9          132.1          59.97
    0.6749              -40.12          1.309          61.77          45.71          2.709         -3.683          120.6          82.92          133.1          133.5          61.35
     0.687               -39.7         0.2358          61.99          45.22          3.123         -3.926          128.7          83.51          140.2          134.6          62.42
     0.699              -39.37        -0.6024          62.17          44.84          3.447         -4.115          135.0          83.97          145.8          135.5          63.26
    0.7111              -39.11         -1.262           62.3          44.54          3.701         -4.265          139.9          84.34          150.2          136.1          63.92
